<mxfile host="app.diagrams.net" agent="Mozilla/5.0 (Windows NT 10.0; Win64; x64; rv:136.0) Gecko/20100101 Firefox/136.0" version="26.1.1">
  <diagram name="Page-1" id="b5b7bab2-c9e2-2cf4-8b2a-24fd1a2a6d21">
    <mxGraphModel dx="1034" dy="436" grid="1" gridSize="10" guides="1" tooltips="1" connect="1" arrows="1" fold="1" page="1" pageScale="1" pageWidth="827" pageHeight="1169" background="none" math="0" shadow="0">
      <root>
        <mxCell id="0" />
        <mxCell id="1" parent="0" />
        <mxCell id="RdFcVBw3AS-H3tqxGiPs-4" value="" style="edgeStyle=orthogonalEdgeStyle;rounded=0;orthogonalLoop=1;jettySize=auto;html=1;" edge="1" parent="1" source="RdFcVBw3AS-H3tqxGiPs-2" target="RdFcVBw3AS-H3tqxGiPs-3">
          <mxGeometry relative="1" as="geometry" />
        </mxCell>
        <mxCell id="RdFcVBw3AS-H3tqxGiPs-2" value="Game" style="ellipse;whiteSpace=wrap;html=1;" vertex="1" parent="1">
          <mxGeometry x="360" y="40" width="80" height="40" as="geometry" />
        </mxCell>
        <mxCell id="RdFcVBw3AS-H3tqxGiPs-3" value="player : PlayerCountry&lt;br&gt;enemy: EnemyCountry&lt;br&gt;map: Map&lt;br&gt;state: GameState&lt;br&gt;startGame(): void&lt;br&gt;nextLevel(): void&lt;br&gt;checkIfWon(): boolean&lt;br&gt;checkIfLost(): boolean&lt;br&gt;endGame(): void" style="whiteSpace=wrap;html=1;" vertex="1" parent="1">
          <mxGeometry x="280" y="110" width="240" height="130" as="geometry" />
        </mxCell>
        <mxCell id="RdFcVBw3AS-H3tqxGiPs-7" value="" style="edgeStyle=orthogonalEdgeStyle;rounded=0;orthogonalLoop=1;jettySize=auto;html=1;" edge="1" parent="1" source="RdFcVBw3AS-H3tqxGiPs-5" target="RdFcVBw3AS-H3tqxGiPs-6">
          <mxGeometry relative="1" as="geometry" />
        </mxCell>
        <mxCell id="RdFcVBw3AS-H3tqxGiPs-11" value="" style="edgeStyle=orthogonalEdgeStyle;rounded=0;orthogonalLoop=1;jettySize=auto;html=1;exitX=0;exitY=0.5;exitDx=0;exitDy=0;entryX=1;entryY=0.5;entryDx=0;entryDy=0;" edge="1" parent="1" source="RdFcVBw3AS-H3tqxGiPs-10" target="RdFcVBw3AS-H3tqxGiPs-5">
          <mxGeometry relative="1" as="geometry">
            <mxPoint x="470" y="260" as="targetPoint" />
          </mxGeometry>
        </mxCell>
        <mxCell id="RdFcVBw3AS-H3tqxGiPs-5" value="Country" style="ellipse;whiteSpace=wrap;html=1;" vertex="1" parent="1">
          <mxGeometry x="360" y="280" width="80" height="40" as="geometry" />
        </mxCell>
        <mxCell id="RdFcVBw3AS-H3tqxGiPs-6" value="name: String&lt;br&gt;population: int&lt;br&gt;resources: int&lt;br&gt;armyCapacity: int&lt;br&gt;territory: List&amp;lt;Cell&amp;gt;&lt;br&gt;abstract move(int x, int y) : void&lt;br&gt;abstract defend() : void&lt;br&gt;abstract attack(Cell targetCell) : void" style="whiteSpace=wrap;html=1;" vertex="1" parent="1">
          <mxGeometry x="295" y="360" width="210" height="120" as="geometry" />
        </mxCell>
        <mxCell id="RdFcVBw3AS-H3tqxGiPs-13" value="" style="edgeStyle=orthogonalEdgeStyle;rounded=0;orthogonalLoop=1;jettySize=auto;html=1;" edge="1" parent="1" source="RdFcVBw3AS-H3tqxGiPs-8" target="RdFcVBw3AS-H3tqxGiPs-12">
          <mxGeometry relative="1" as="geometry" />
        </mxCell>
        <mxCell id="RdFcVBw3AS-H3tqxGiPs-8" value="&lt;div&gt;playerCountry&lt;/div&gt;" style="ellipse;whiteSpace=wrap;html=1;" vertex="1" parent="1">
          <mxGeometry x="105" y="280" width="80" height="40" as="geometry" />
        </mxCell>
        <mxCell id="RdFcVBw3AS-H3tqxGiPs-9" value="" style="endArrow=classic;html=1;rounded=0;entryX=0;entryY=0.5;entryDx=0;entryDy=0;exitX=1;exitY=0.5;exitDx=0;exitDy=0;" edge="1" parent="1" source="RdFcVBw3AS-H3tqxGiPs-8" target="RdFcVBw3AS-H3tqxGiPs-5">
          <mxGeometry width="50" height="50" relative="1" as="geometry">
            <mxPoint x="240" y="300" as="sourcePoint" />
            <mxPoint x="295" y="275" as="targetPoint" />
          </mxGeometry>
        </mxCell>
        <mxCell id="RdFcVBw3AS-H3tqxGiPs-15" value="" style="edgeStyle=orthogonalEdgeStyle;rounded=0;orthogonalLoop=1;jettySize=auto;html=1;" edge="1" parent="1" source="RdFcVBw3AS-H3tqxGiPs-10" target="RdFcVBw3AS-H3tqxGiPs-14">
          <mxGeometry relative="1" as="geometry" />
        </mxCell>
        <mxCell id="RdFcVBw3AS-H3tqxGiPs-10" value="enemyCountry" style="ellipse;whiteSpace=wrap;html=1;" vertex="1" parent="1">
          <mxGeometry x="600" y="280" width="80" height="40" as="geometry" />
        </mxCell>
        <mxCell id="RdFcVBw3AS-H3tqxGiPs-12" value="&lt;div align=&quot;left&quot;&gt;relocatePopulation(Cell newLocation) : void&lt;/div&gt;&lt;div align=&quot;left&quot;&gt;fortifyBorders() : void&lt;/div&gt;" style="whiteSpace=wrap;html=1;align=left;" vertex="1" parent="1">
          <mxGeometry y="360" width="290" height="120" as="geometry" />
        </mxCell>
        <mxCell id="RdFcVBw3AS-H3tqxGiPs-14" value="strategy : Strategy&lt;br&gt;expandTerritory(Cell targetCell) : void&lt;br&gt;declareWar() : void" style="whiteSpace=wrap;html=1;" vertex="1" parent="1">
          <mxGeometry x="520" y="360" width="240" height="120" as="geometry" />
        </mxCell>
        <mxCell id="RdFcVBw3AS-H3tqxGiPs-20" value="" style="edgeStyle=orthogonalEdgeStyle;rounded=0;orthogonalLoop=1;jettySize=auto;html=1;" edge="1" parent="1" source="RdFcVBw3AS-H3tqxGiPs-16" target="RdFcVBw3AS-H3tqxGiPs-19">
          <mxGeometry relative="1" as="geometry" />
        </mxCell>
        <mxCell id="RdFcVBw3AS-H3tqxGiPs-16" value="Map" style="ellipse;whiteSpace=wrap;html=1;" vertex="1" parent="1">
          <mxGeometry x="240" y="520" width="80" height="40" as="geometry" />
        </mxCell>
        <mxCell id="RdFcVBw3AS-H3tqxGiPs-22" value="" style="edgeStyle=orthogonalEdgeStyle;rounded=0;orthogonalLoop=1;jettySize=auto;html=1;" edge="1" parent="1" source="RdFcVBw3AS-H3tqxGiPs-17" target="RdFcVBw3AS-H3tqxGiPs-21">
          <mxGeometry relative="1" as="geometry" />
        </mxCell>
        <mxCell id="RdFcVBw3AS-H3tqxGiPs-17" value="&lt;div&gt;Cell&lt;/div&gt;" style="ellipse;whiteSpace=wrap;html=1;" vertex="1" parent="1">
          <mxGeometry x="560" y="520" width="80" height="40" as="geometry" />
        </mxCell>
        <mxCell id="RdFcVBw3AS-H3tqxGiPs-19" value="grid[][] : Cell&lt;br&gt;width : int&lt;br&gt;height : int&lt;br&gt;findSafeZone() : Cell" style="whiteSpace=wrap;html=1;" vertex="1" parent="1">
          <mxGeometry x="160" y="600" width="240" height="120" as="geometry" />
        </mxCell>
        <mxCell id="RdFcVBw3AS-H3tqxGiPs-21" value="x : int&lt;br&gt;y: int&lt;br&gt;occupiedBy: Country&lt;br&gt;isOccupied() : boolean" style="whiteSpace=wrap;html=1;" vertex="1" parent="1">
          <mxGeometry x="480" y="600" width="240" height="120" as="geometry" />
        </mxCell>
        <mxCell id="RdFcVBw3AS-H3tqxGiPs-28" value="" style="edgeStyle=orthogonalEdgeStyle;rounded=0;orthogonalLoop=1;jettySize=auto;html=1;" edge="1" parent="1" source="RdFcVBw3AS-H3tqxGiPs-26" target="RdFcVBw3AS-H3tqxGiPs-27">
          <mxGeometry relative="1" as="geometry" />
        </mxCell>
        <mxCell id="RdFcVBw3AS-H3tqxGiPs-26" value="Strategy" style="shape=hexagon;perimeter=hexagonPerimeter2;whiteSpace=wrap;html=1;fixedSize=1;" vertex="1" parent="1">
          <mxGeometry x="370" y="920" width="100" height="40" as="geometry" />
        </mxCell>
        <mxCell id="RdFcVBw3AS-H3tqxGiPs-27" value="makeDecision(GameState) :void" style="whiteSpace=wrap;html=1;" vertex="1" parent="1">
          <mxGeometry x="330" y="1000" width="180" height="70" as="geometry" />
        </mxCell>
        <mxCell id="RdFcVBw3AS-H3tqxGiPs-31" value="" style="edgeStyle=orthogonalEdgeStyle;rounded=0;orthogonalLoop=1;jettySize=auto;html=1;" edge="1" parent="1" source="RdFcVBw3AS-H3tqxGiPs-29">
          <mxGeometry relative="1" as="geometry">
            <mxPoint x="120" y="180" as="targetPoint" />
          </mxGeometry>
        </mxCell>
        <mxCell id="RdFcVBw3AS-H3tqxGiPs-29" value="GameState" style="rounded=1;whiteSpace=wrap;html=1;" vertex="1" parent="1">
          <mxGeometry x="60" y="40" width="120" height="60" as="geometry" />
        </mxCell>
        <mxCell id="RdFcVBw3AS-H3tqxGiPs-32" value="BATTLE : GameState&lt;br&gt;PLANNING : GameState&lt;br&gt;MOVING : GameState" style="rounded=0;whiteSpace=wrap;html=1;" vertex="1" parent="1">
          <mxGeometry x="50" y="180" width="140" height="60" as="geometry" />
        </mxCell>
        <mxCell id="RdFcVBw3AS-H3tqxGiPs-39" style="edgeStyle=orthogonalEdgeStyle;rounded=0;orthogonalLoop=1;jettySize=auto;html=1;exitX=0;exitY=0.5;exitDx=0;exitDy=0;entryX=1;entryY=0.5;entryDx=0;entryDy=0;" edge="1" parent="1" source="RdFcVBw3AS-H3tqxGiPs-33" target="RdFcVBw3AS-H3tqxGiPs-26">
          <mxGeometry relative="1" as="geometry" />
        </mxCell>
        <mxCell id="RdFcVBw3AS-H3tqxGiPs-41" value="" style="edgeStyle=orthogonalEdgeStyle;rounded=0;orthogonalLoop=1;jettySize=auto;html=1;" edge="1" parent="1" source="RdFcVBw3AS-H3tqxGiPs-33" target="RdFcVBw3AS-H3tqxGiPs-40">
          <mxGeometry relative="1" as="geometry" />
        </mxCell>
        <mxCell id="RdFcVBw3AS-H3tqxGiPs-33" value="DeffensiveStrat" style="ellipse;whiteSpace=wrap;html=1;" vertex="1" parent="1">
          <mxGeometry x="640" y="920" width="80" height="40" as="geometry" />
        </mxCell>
        <mxCell id="RdFcVBw3AS-H3tqxGiPs-35" value="makeDecision(GameState) :void" style="whiteSpace=wrap;html=1;" vertex="1" parent="1">
          <mxGeometry x="30" y="1000" width="180" height="60" as="geometry" />
        </mxCell>
        <mxCell id="RdFcVBw3AS-H3tqxGiPs-38" style="edgeStyle=orthogonalEdgeStyle;rounded=0;orthogonalLoop=1;jettySize=auto;html=1;exitX=1;exitY=0.5;exitDx=0;exitDy=0;entryX=0;entryY=0.5;entryDx=0;entryDy=0;" edge="1" parent="1" source="RdFcVBw3AS-H3tqxGiPs-37" target="RdFcVBw3AS-H3tqxGiPs-26">
          <mxGeometry relative="1" as="geometry" />
        </mxCell>
        <mxCell id="RdFcVBw3AS-H3tqxGiPs-42" style="edgeStyle=orthogonalEdgeStyle;rounded=0;orthogonalLoop=1;jettySize=auto;html=1;exitX=0.5;exitY=1;exitDx=0;exitDy=0;entryX=0.5;entryY=0;entryDx=0;entryDy=0;" edge="1" parent="1" source="RdFcVBw3AS-H3tqxGiPs-37" target="RdFcVBw3AS-H3tqxGiPs-35">
          <mxGeometry relative="1" as="geometry" />
        </mxCell>
        <mxCell id="RdFcVBw3AS-H3tqxGiPs-37" value="AgressiveStrat" style="ellipse;whiteSpace=wrap;html=1;" vertex="1" parent="1">
          <mxGeometry x="80" y="920" width="80" height="40" as="geometry" />
        </mxCell>
        <mxCell id="RdFcVBw3AS-H3tqxGiPs-40" value="makeDecision(GameState) :void" style="whiteSpace=wrap;html=1;" vertex="1" parent="1">
          <mxGeometry x="590" y="1000" width="180" height="60" as="geometry" />
        </mxCell>
        <mxCell id="RdFcVBw3AS-H3tqxGiPs-48" value="" style="edgeStyle=orthogonalEdgeStyle;rounded=0;orthogonalLoop=1;jettySize=auto;html=1;" edge="1" parent="1" source="RdFcVBw3AS-H3tqxGiPs-46" target="RdFcVBw3AS-H3tqxGiPs-47">
          <mxGeometry relative="1" as="geometry" />
        </mxCell>
        <mxCell id="RdFcVBw3AS-H3tqxGiPs-49" style="edgeStyle=orthogonalEdgeStyle;rounded=0;orthogonalLoop=1;jettySize=auto;html=1;exitX=0.5;exitY=1;exitDx=0;exitDy=0;entryX=0.5;entryY=0;entryDx=0;entryDy=0;" edge="1" parent="1" source="RdFcVBw3AS-H3tqxGiPs-46" target="RdFcVBw3AS-H3tqxGiPs-26">
          <mxGeometry relative="1" as="geometry" />
        </mxCell>
        <mxCell id="RdFcVBw3AS-H3tqxGiPs-46" value="RadnomStrat" style="ellipse;whiteSpace=wrap;html=1;" vertex="1" parent="1">
          <mxGeometry x="380" y="840" width="80" height="40" as="geometry" />
        </mxCell>
        <mxCell id="RdFcVBw3AS-H3tqxGiPs-47" value="makeDecision(GameState) :void" style="whiteSpace=wrap;html=1;" vertex="1" parent="1">
          <mxGeometry x="330" y="750" width="180" height="60" as="geometry" />
        </mxCell>
        <mxCell id="RdFcVBw3AS-H3tqxGiPs-52" value="" style="edgeStyle=orthogonalEdgeStyle;rounded=0;orthogonalLoop=1;jettySize=auto;html=1;" edge="1" parent="1" source="RdFcVBw3AS-H3tqxGiPs-50" target="RdFcVBw3AS-H3tqxGiPs-51">
          <mxGeometry relative="1" as="geometry" />
        </mxCell>
        <mxCell id="RdFcVBw3AS-H3tqxGiPs-50" value="userInterface" style="ellipse;whiteSpace=wrap;html=1;" vertex="1" parent="1">
          <mxGeometry x="640" y="40" width="80" height="40" as="geometry" />
        </mxCell>
        <mxCell id="RdFcVBw3AS-H3tqxGiPs-51" value="&lt;div&gt;stage : Stage&lt;/div&gt;&lt;div&gt;canvas : Canvas&lt;br&gt;buttons : List&amp;lt;Button&amp;gt;&lt;br&gt;start(Stage primaryStage) : void&lt;br&gt;renderGame() : void&lt;/div&gt;" style="whiteSpace=wrap;html=1;" vertex="1" parent="1">
          <mxGeometry x="560" y="110" width="240" height="130" as="geometry" />
        </mxCell>
      </root>
    </mxGraphModel>
  </diagram>
</mxfile>
